<mxfile host="Electron" agent="Mozilla/5.0 (X11; Linux x86_64) AppleWebKit/537.36 (KHTML, like Gecko) draw.io/28.2.8 Chrome/140.0.7339.240 Electron/38.4.0 Safari/537.36" version="28.2.8">
  <diagram name="Page-1" id="42789a77-a242-8287-6e28-9cd8cfd52e62">
    <mxGraphModel dx="706" dy="1482" grid="1" gridSize="10" guides="1" tooltips="1" connect="1" arrows="1" fold="1" page="1" pageScale="1" pageWidth="1100" pageHeight="850" background="none" math="0" shadow="0">
      <root>
        <mxCell id="0" />
        <mxCell id="1" parent="0" />
        <mxCell id="1ea317790d2ca983-12" style="edgeStyle=none;rounded=1;html=1;labelBackgroundColor=#FFFFFF;startArrow=none;startFill=0;startSize=5;endArrow=classicThin;endFill=1;endSize=5;jettySize=auto;orthogonalLoop=1;strokeColor=#B3B3B3;strokeWidth=1;fontFamily=Verdana;fontSize=12" parent="1" source="1ea317790d2ca983-1" target="1ea317790d2ca983-2" edge="1">
          <mxGeometry relative="1" as="geometry" />
        </mxCell>
        <mxCell id="X0iNmSqpaTb7vp-CemVc-1" value="&lt;font style=&quot;font-size: 12px;&quot; face=&quot;Verdana&quot;&gt;part_of&lt;/font&gt;" style="edgeLabel;html=1;align=center;verticalAlign=middle;resizable=0;points=[];labelBackgroundColor=#FFFFFF;" parent="1ea317790d2ca983-12" vertex="1" connectable="0">
          <mxGeometry x="-0.08" y="-1" relative="1" as="geometry">
            <mxPoint as="offset" />
          </mxGeometry>
        </mxCell>
        <mxCell id="1ea317790d2ca983-13" value="&lt;span style=&quot;background-color: rgb(255, 255, 255);&quot;&gt;classified_as&lt;/span&gt;" style="edgeStyle=none;rounded=1;html=1;labelBackgroundColor=#FFFFFF;startArrow=none;startFill=0;startSize=5;endArrow=classicThin;endFill=1;endSize=5;jettySize=auto;orthogonalLoop=1;strokeColor=#B3B3B3;strokeWidth=1;fontFamily=Verdana;fontSize=12" parent="1" source="1ea317790d2ca983-1" target="1ea317790d2ca983-9" edge="1">
          <mxGeometry relative="1" as="geometry" />
        </mxCell>
        <mxCell id="1ea317790d2ca983-14" value="assigned" style="edgeStyle=none;rounded=1;html=1;labelBackgroundColor=#FFFFFF;startArrow=none;startFill=0;startSize=5;endArrow=classicThin;endFill=1;endSize=5;jettySize=auto;orthogonalLoop=1;strokeColor=#B3B3B3;strokeWidth=1;fontFamily=Verdana;fontSize=12" parent="1" source="FMsEy_7_wvE7BqOvE81P-6" target="1ea317790d2ca983-3" edge="1">
          <mxGeometry relative="1" as="geometry">
            <mxPoint x="430" y="160" as="sourcePoint" />
          </mxGeometry>
        </mxCell>
        <mxCell id="1ea317790d2ca983-1" value="&lt;div&gt;Activity&lt;/div&gt;&lt;div&gt;&lt;font style=&quot;font-size: 11px;&quot;&gt;(Production)&lt;/font&gt;&lt;/div&gt;" style="ellipse;whiteSpace=wrap;html=1;rounded=0;shadow=1;comic=0;labelBackgroundColor=none;strokeWidth=2;fontFamily=Verdana;fontSize=12;align=center;fillColor=#1ba1e2;strokeColor=#36393D;fontColor=#ffffff;" parent="1" vertex="1">
          <mxGeometry x="490" y="-80" width="130" height="60" as="geometry" />
        </mxCell>
        <mxCell id="1ea317790d2ca983-21" value="took_place_at" style="edgeStyle=none;rounded=1;html=1;labelBackgroundColor=#FFFFFF;startArrow=none;startFill=0;startSize=5;endArrow=classicThin;endFill=1;endSize=5;jettySize=auto;orthogonalLoop=1;strokeColor=#B3B3B3;strokeWidth=1;fontFamily=Verdana;fontSize=12" parent="1" source="1ea317790d2ca983-1" target="1ea317790d2ca983-7" edge="1">
          <mxGeometry relative="1" as="geometry" />
        </mxCell>
        <mxCell id="1ea317790d2ca983-22" value="timespan" style="edgeStyle=none;rounded=1;html=1;labelBackgroundColor=#FFFFFF;startArrow=none;startFill=0;startSize=5;endArrow=classicThin;endFill=1;endSize=5;jettySize=auto;orthogonalLoop=1;strokeColor=#B3B3B3;strokeWidth=1;fontFamily=Verdana;fontSize=12" parent="1" source="1ea317790d2ca983-1" target="1ea317790d2ca983-6" edge="1">
          <mxGeometry relative="1" as="geometry" />
        </mxCell>
        <mxCell id="1ea317790d2ca983-2" value="&lt;span&gt;Activity&lt;/span&gt;&lt;div&gt;&lt;span&gt;&lt;font style=&quot;font-size: 9px;&quot;&gt;(= Festival)&lt;/font&gt;&lt;/span&gt;&lt;/div&gt;" style="ellipse;whiteSpace=wrap;html=1;rounded=0;shadow=1;comic=0;labelBackgroundColor=none;strokeWidth=1;fontFamily=Verdana;fontSize=12;align=center;fillColor=#1ba1e2;strokeColor=#006EAF;fontColor=#ffffff;" parent="1" vertex="1">
          <mxGeometry x="300" y="-180" width="130" height="60" as="geometry" />
        </mxCell>
        <mxCell id="1ea317790d2ca983-15" value="carried_out_by" style="edgeStyle=none;rounded=1;html=1;labelBackgroundColor=#FFFFFF;startArrow=none;startFill=0;startSize=5;endArrow=classicThin;endFill=1;endSize=5;jettySize=auto;orthogonalLoop=1;strokeColor=#B3B3B3;strokeWidth=1;fontFamily=Verdana;fontSize=12" parent="1" source="FMsEy_7_wvE7BqOvE81P-2" target="1ea317790d2ca983-4" edge="1">
          <mxGeometry relative="1" as="geometry">
            <mxPoint x="930" y="30" as="sourcePoint" />
          </mxGeometry>
        </mxCell>
        <mxCell id="1ea317790d2ca983-3" value="&lt;span&gt;HumanMadeObject&lt;/span&gt;&lt;div&gt;&lt;span&gt;&lt;font style=&quot;font-size: 9px;&quot;&gt;(= show programme)&lt;/font&gt;&lt;/span&gt;&lt;/div&gt;" style="ellipse;whiteSpace=wrap;html=1;rounded=0;shadow=1;comic=0;labelBackgroundColor=none;strokeWidth=1;fontFamily=Verdana;fontSize=12;align=center;fillColor=#ffff88;strokeColor=#36393d;" parent="1" vertex="1">
          <mxGeometry x="490" y="190" width="130" height="60" as="geometry" />
        </mxCell>
        <mxCell id="1ea317790d2ca983-4" value="&lt;span&gt;Person / Group&lt;/span&gt;&lt;div&gt;&lt;span&gt;&lt;font style=&quot;font-size: 8px;&quot;&gt;(director, actor, production crew...)&lt;/font&gt;&lt;/span&gt;&lt;/div&gt;" style="ellipse;whiteSpace=wrap;html=1;rounded=0;shadow=1;comic=0;labelBackgroundColor=none;strokeWidth=1;fontFamily=Verdana;fontSize=12;align=center;fillColor=#f8cecc;strokeColor=#b85450;" parent="1" vertex="1">
          <mxGeometry x="830" y="120" width="130" height="60" as="geometry" />
        </mxCell>
        <mxCell id="1ea317790d2ca983-23" value="used_specific_object" style="edgeStyle=none;rounded=1;html=1;labelBackgroundColor=#FFFFFF;startArrow=none;startFill=0;startSize=5;endArrow=classicThin;endFill=1;endSize=5;jettySize=auto;orthogonalLoop=1;strokeColor=#B3B3B3;strokeWidth=1;fontFamily=Verdana;fontSize=12" parent="1" source="1ea317790d2ca983-1" target="1ea317790d2ca983-8" edge="1">
          <mxGeometry relative="1" as="geometry" />
        </mxCell>
        <mxCell id="1ea317790d2ca983-6" value="&lt;span&gt;TimeSpan&lt;/span&gt;&lt;div&gt;&lt;span&gt;&lt;font style=&quot;font-size: 9px;&quot;&gt;(= starting and ending dates of the Production)&lt;/font&gt;&lt;/span&gt;&lt;/div&gt;" style="ellipse;whiteSpace=wrap;html=1;rounded=0;shadow=1;comic=0;labelBackgroundColor=none;strokeWidth=1;fontFamily=Verdana;fontSize=12;align=center;fillColor=#b0e3e6;strokeColor=#0e8088;" parent="1" vertex="1">
          <mxGeometry x="740" y="-210" width="130" height="60" as="geometry" />
        </mxCell>
        <mxCell id="1ea317790d2ca983-7" value="&lt;span&gt;Place&lt;/span&gt;&lt;div&gt;&lt;span&gt;&lt;font style=&quot;font-size: 9px;&quot;&gt;(= theatre)&lt;/font&gt;&lt;/span&gt;&lt;/div&gt;" style="ellipse;whiteSpace=wrap;html=1;rounded=0;shadow=1;comic=0;labelBackgroundColor=none;strokeWidth=1;fontFamily=Verdana;fontSize=12;align=center;fillColor=#cdeb8b;strokeColor=#36393d;" parent="1" vertex="1">
          <mxGeometry x="590" y="-250" width="130" height="60" as="geometry" />
        </mxCell>
        <mxCell id="1ea317790d2ca983-8" value="Set&lt;div&gt;&lt;font style=&quot;font-size: 9px;&quot;&gt;(= practical information: duration of the show&lt;/font&gt;&lt;/div&gt;&lt;div&gt;&lt;font style=&quot;font-size: 9px;&quot;&gt;+ price)&lt;/font&gt;&lt;/div&gt;" style="ellipse;whiteSpace=wrap;html=1;rounded=0;shadow=1;comic=0;labelBackgroundColor=none;strokeWidth=1;fontFamily=Verdana;fontSize=12;align=center;fillColor=#ffff88;strokeColor=#36393d;" parent="1" vertex="1">
          <mxGeometry x="485" y="-340" width="130" height="60" as="geometry" />
        </mxCell>
        <mxCell id="1ea317790d2ca983-19" value="influenced_by" style="edgeStyle=none;rounded=1;html=1;labelBackgroundColor=#FFFFFF;startArrow=none;startFill=0;startSize=5;endArrow=classicThin;endFill=1;endSize=5;jettySize=auto;orthogonalLoop=1;strokeColor=#B3B3B3;strokeWidth=1;fontFamily=Verdana;fontSize=12" parent="1" source="1ea317790d2ca983-1" target="1ea317790d2ca983-10" edge="1">
          <mxGeometry relative="1" as="geometry" />
        </mxCell>
        <mxCell id="1ea317790d2ca983-9" value="type&lt;div style=&quot;font-size: 11px;&quot;&gt;(&lt;font style=&quot;font-size: 11px;&quot;&gt;LinguisticObject&lt;/font&gt;&lt;/div&gt;&lt;div style=&quot;&quot;&gt;&lt;font style=&quot;font-size: 9px;&quot;&gt; = genre&lt;/font&gt;&lt;span style=&quot;font-size: 11px;&quot;&gt;)&lt;/span&gt;&lt;/div&gt;" style="ellipse;whiteSpace=wrap;html=1;rounded=0;shadow=1;comic=0;labelBackgroundColor=none;strokeWidth=1;fontFamily=Verdana;fontSize=12;align=center;rotation=0;fillColor=#ffcc99;strokeColor=#36393d;" parent="1" vertex="1">
          <mxGeometry x="400" y="-250" width="130" height="60" as="geometry" />
        </mxCell>
        <mxCell id="1ea317790d2ca983-20" value="identified_by" style="edgeStyle=none;rounded=1;html=1;labelBackgroundColor=#FFFFFF;startArrow=none;startFill=0;startSize=5;endArrow=classicThin;endFill=1;endSize=5;jettySize=auto;orthogonalLoop=1;strokeColor=#B3B3B3;strokeWidth=1;fontFamily=Verdana;fontSize=12" parent="1" source="1ea317790d2ca983-1" target="1ea317790d2ca983-11" edge="1">
          <mxGeometry relative="1" as="geometry" />
        </mxCell>
        <mxCell id="1ea317790d2ca983-10" value="&lt;span&gt;PropositionalObject&lt;/span&gt;&lt;div&gt;&lt;span&gt;&lt;font style=&quot;font-size: 11px;&quot;&gt;(Work)&lt;/font&gt;&lt;/span&gt;&lt;/div&gt;" style="ellipse;whiteSpace=wrap;html=1;rounded=0;shadow=1;comic=0;labelBackgroundColor=none;strokeWidth=1;fontFamily=Verdana;fontSize=12;align=center;rotation=0;fillColor=#ffff88;strokeColor=#36393d;" parent="1" vertex="1">
          <mxGeometry x="240" y="-80" width="130" height="60" as="geometry" />
        </mxCell>
        <mxCell id="1ea317790d2ca983-11" value="&lt;span&gt;Name&lt;/span&gt;&lt;div&gt;&lt;span&gt;&lt;font style=&quot;font-size: 9px;&quot;&gt;(= literal title + language)&lt;/font&gt;&lt;/span&gt;&lt;/div&gt;" style="ellipse;whiteSpace=wrap;html=1;rounded=0;shadow=1;comic=0;labelBackgroundColor=none;strokeWidth=1;fontFamily=Verdana;fontSize=12;align=center;rotation=0;fillColor=#f0a30a;strokeColor=#BD7000;fontColor=#000000;" parent="1" vertex="1">
          <mxGeometry x="240" y="70" width="130" height="60" as="geometry" />
        </mxCell>
        <mxCell id="FMsEy_7_wvE7BqOvE81P-1" value="produced_by" style="edgeStyle=none;rounded=1;html=1;labelBackgroundColor=#FFFFFF;startArrow=none;startFill=0;startSize=5;endArrow=classicThin;endFill=1;endSize=5;jettySize=auto;orthogonalLoop=1;strokeColor=#B3B3B3;strokeWidth=1;fontFamily=Verdana;fontSize=12" parent="1" source="1ea317790d2ca983-1" target="FMsEy_7_wvE7BqOvE81P-2" edge="1">
          <mxGeometry relative="1" as="geometry">
            <mxPoint x="751.9367406987974" y="-425.00333292301616" as="sourcePoint" />
          </mxGeometry>
        </mxCell>
        <mxCell id="FMsEy_7_wvE7BqOvE81P-2" value="&lt;span&gt;Production&lt;/span&gt;" style="ellipse;whiteSpace=wrap;html=1;rounded=0;shadow=1;comic=0;labelBackgroundColor=none;strokeWidth=1;fontFamily=Verdana;fontSize=12;align=center;fillColor=#cce5ff;strokeColor=#36393d;" parent="1" vertex="1">
          <mxGeometry x="650" y="9.999999999999972" width="130" height="60" as="geometry" />
        </mxCell>
        <mxCell id="FMsEy_7_wvE7BqOvE81P-3" value="&lt;span&gt;Role&lt;/span&gt;&lt;div&gt;&lt;span&gt;&lt;font style=&quot;font-size: 9px;&quot;&gt;(director, actor, sponsor...)&lt;/font&gt;&lt;/span&gt;&lt;/div&gt;" style="ellipse;whiteSpace=wrap;html=1;rounded=0;shadow=1;comic=0;labelBackgroundColor=none;strokeWidth=1;fontFamily=Verdana;fontSize=12;align=center;fillColor=#cce5ff;strokeColor=#36393d;" parent="1" vertex="1">
          <mxGeometry x="900" y="9.999999999999972" width="130" height="60" as="geometry" />
        </mxCell>
        <mxCell id="FMsEy_7_wvE7BqOvE81P-4" value="technique" style="edgeStyle=none;rounded=1;html=1;labelBackgroundColor=#FFFFFF;startArrow=none;startFill=0;startSize=5;endArrow=classicThin;endFill=1;endSize=5;jettySize=auto;orthogonalLoop=1;strokeColor=#B3B3B3;strokeWidth=1;fontFamily=Verdana;fontSize=12" parent="1" source="FMsEy_7_wvE7BqOvE81P-2" target="FMsEy_7_wvE7BqOvE81P-3" edge="1">
          <mxGeometry relative="1" as="geometry">
            <mxPoint x="779" y="66" as="sourcePoint" />
            <mxPoint x="871" y="134" as="targetPoint" />
          </mxGeometry>
        </mxCell>
        <mxCell id="FMsEy_7_wvE7BqOvE81P-5" value="" style="edgeStyle=none;rounded=1;html=1;labelBackgroundColor=#FFFFFF;startArrow=none;startFill=0;startSize=5;endArrow=classicThin;endFill=1;endSize=5;jettySize=auto;orthogonalLoop=1;strokeColor=#B3B3B3;strokeWidth=1;fontFamily=Verdana;fontSize=12" parent="1" source="1ea317790d2ca983-1" target="FMsEy_7_wvE7BqOvE81P-6" edge="1">
          <mxGeometry relative="1" as="geometry">
            <mxPoint x="550" as="sourcePoint" />
          </mxGeometry>
        </mxCell>
        <mxCell id="FMsEy_7_wvE7BqOvE81P-7" value="&lt;font face=&quot;Verdana&quot; style=&quot;font-size: 12px;&quot;&gt;attributed_by&lt;/font&gt;" style="edgeLabel;html=1;align=center;verticalAlign=middle;resizable=0;points=[];" parent="FMsEy_7_wvE7BqOvE81P-5" vertex="1" connectable="0">
          <mxGeometry x="-0.0411" y="-1" relative="1" as="geometry">
            <mxPoint as="offset" />
          </mxGeometry>
        </mxCell>
        <mxCell id="FMsEy_7_wvE7BqOvE81P-6" value="&lt;div&gt;&lt;font style=&quot;&quot;&gt;AttributeAssignment&lt;/font&gt;&lt;/div&gt;" style="ellipse;whiteSpace=wrap;html=1;rounded=0;shadow=1;comic=0;labelBackgroundColor=none;strokeWidth=1;fontFamily=Verdana;fontSize=12;align=center;fillColor=#cce5ff;strokeColor=#36393d;" parent="1" vertex="1">
          <mxGeometry x="490" y="80" width="130" height="60" as="geometry" />
        </mxCell>
        <mxCell id="76exhx4hvL4ph3MPATnJ-1" value="&lt;div&gt;&lt;font style=&quot;&quot;&gt;Content&lt;/font&gt;&lt;/div&gt;&lt;div&gt;&lt;font style=&quot;font-size: 8px;&quot;&gt;(character)&lt;/font&gt;&lt;/div&gt;" style="ellipse;whiteSpace=wrap;html=1;rounded=0;shadow=1;comic=0;labelBackgroundColor=none;strokeWidth=1;fontFamily=Verdana;fontSize=12;align=center;fillColor=#eeeeee;strokeColor=#B3B3B3;" parent="1" vertex="1">
          <mxGeometry x="830" y="230" width="130" height="60" as="geometry" />
        </mxCell>
        <mxCell id="76exhx4hvL4ph3MPATnJ-2" value="&lt;font style=&quot;color: rgb(179, 179, 179);&quot;&gt;Portrayed&lt;/font&gt;" style="edgeStyle=none;rounded=1;html=1;labelBackgroundColor=#FFFFFF;startArrow=none;startFill=0;startSize=5;endArrow=classicThin;endFill=1;endSize=5;jettySize=auto;orthogonalLoop=1;strokeColor=#B3B3B3;strokeWidth=1;fontFamily=Verdana;fontSize=12;dashed=1;" parent="1" source="1ea317790d2ca983-4" target="76exhx4hvL4ph3MPATnJ-1" edge="1">
          <mxGeometry relative="1" as="geometry">
            <mxPoint x="810" y="30" as="sourcePoint" />
            <mxPoint x="930" y="30" as="targetPoint" />
          </mxGeometry>
        </mxCell>
      </root>
    </mxGraphModel>
  </diagram>
</mxfile>
